<?xml version="1.0" encoding="UTF-8" standalone="no"?>
<!-- Created with Inkscape (http://www.inkscape.org/) -->

<svg
   width="600"
   height="400"
   viewBox="0 0 158.75 105.83333"
   version="1.1"
   id="svg6925"
   inkscape:version="1.2.2 (b0a8486541, 2022-12-01)"
   sodipodi:docname="Logo horizontal dark.svg"
   xmlns:inkscape="http://www.inkscape.org/namespaces/inkscape"
   xmlns:sodipodi="http://sodipodi.sourceforge.net/DTD/sodipodi-0.dtd"
   xmlns="http://www.w3.org/2000/svg"
   xmlns:svg="http://www.w3.org/2000/svg">
  <sodipodi:namedview
     id="namedview6927"
     pagecolor="#ffffff"
     bordercolor="#666666"
     borderopacity="1.0"
     inkscape:showpageshadow="2"
     inkscape:pageopacity="0.0"
     inkscape:pagecheckerboard="0"
     inkscape:deskcolor="#d1d1d1"
     inkscape:document-units="mm"
     showgrid="false"
     inkscape:zoom="0.914906"
     inkscape:cx="355.22775"
     inkscape:cy="562.35285"
     inkscape:window-width="2560"
     inkscape:window-height="1563"
     inkscape:window-x="0"
     inkscape:window-y="0"
     inkscape:window-maximized="1"
     inkscape:current-layer="layer1" />
  <defs
     id="defs6922">
    <clipPath
       clipPathUnits="userSpaceOnUse"
       id="clipPath288">
      <path
         d="M 0,858.898 H 612.283 V 0 H 0 Z"
         id="path286" />
    </clipPath>
  </defs>
  <g
     inkscape:label="圖層 1"
     inkscape:groupmode="layer"
     id="layer1">
    <text
       xml:space="preserve"
       style="font-variant:normal;font-weight:900;font-stretch:normal;font-size:9.11733px;font-family:'Noto Sans CJK TC Black';-inkscape-font-specification:NotoSansCJKtc-Black;writing-mode:lr-tb;fill:#ffffff;fill-opacity:1;fill-rule:nonzero;stroke:none;stroke-width:0.352778"
       id="text276"
       x="60.551414"
       y="49.584415"><tspan
         x="60.551414 65.65712 71.18222 75.968819 79.825455 84.721458 90.720657 96.154587 101.0506 106.83098 108.91885 114.36189 119.88699"
         y="49.584415"
         sodipodi:role="line"
         id="tspan274"
         style="stroke-width:0.352778">Factcheck Lab</tspan></text>
    <text
       xml:space="preserve"
       style="font-variant:normal;font-weight:500;font-stretch:normal;font-size:7.96138px;font-family:'Noto Sans CJK TC Medium';-inkscape-font-specification:NotoSansCJKtc-Medium;writing-mode:lr-tb;fill:#ffffff;fill-opacity:1;fill-rule:nonzero;stroke:none;stroke-width:0.352778"
       id="text280"
       x="59.779366"
       y="59.731609"><tspan
         x="59.779366 69.333031 78.886681 88.440338 97.994003 107.54767 117.10132"
         y="59.731609"
         sodipodi:role="line"
         id="tspan278"
         style="stroke-width:0.352778">事實查核實驗室</tspan></text>
    <g
       id="g282"
       transform="matrix(0.35277777,0,0,-0.35277777,-72.657682,129.09929)">
      <g
         id="g284"
         clip-path="url(#clipPath288)">
        <g
           id="g290"
           transform="translate(340.336,224.0744)">
          <path
             d="m 0,0 c -0.005,0.915 -0.697,1.606 -1.592,1.59 -0.897,-0.017 -1.587,-0.725 -1.576,-1.618 0.011,-0.88 0.734,-1.62 1.589,-1.623 C -0.697,-1.655 0.005,-0.92 0,0 m -35.58,-27.947 c -0.876,-0.001 -1.606,-0.726 -1.607,-1.593 0,-0.865 0.739,-1.6 1.609,-1.601 0.896,-0.001 1.598,0.691 1.608,1.586 0.011,0.905 -0.694,1.609 -1.61,1.608 m 38.461,9.384 c 0,0.886 -0.696,1.596 -1.583,1.613 -0.878,0.015 -1.619,-0.726 -1.617,-1.62 0.002,-0.869 0.726,-1.609 1.59,-1.621 0.866,-0.013 1.61,0.74 1.61,1.628 M -44.688,3.955 c -0.892,0.002 -1.632,-0.722 -1.638,-1.601 -0.005,-0.869 0.72,-1.588 1.605,-1.592 0.903,-0.005 1.653,0.722 1.642,1.592 -0.01,0.869 -0.744,1.598 -1.609,1.601 m 70.942,7.709 c -0.001,0.881 -0.712,1.596 -1.595,1.604 -0.887,0.007 -1.61,-0.724 -1.607,-1.624 0.003,-0.866 0.737,-1.608 1.595,-1.613 0.87,-0.006 1.608,0.745 1.607,1.633 M 17.552,-26.28 c -0.774,0.066 -1.554,-0.622 -1.62,-1.43 -0.078,-0.949 0.549,-1.714 1.487,-1.811 0.824,-0.086 1.636,0.622 1.712,1.496 0.082,0.945 -0.563,1.658 -1.579,1.745 m 0.802,19.087 c -0.003,-0.924 0.677,-1.635 1.575,-1.646 0.876,-0.01 1.641,0.724 1.663,1.593 0.021,0.853 -0.78,1.656 -1.647,1.652 -0.877,-0.005 -1.589,-0.72 -1.591,-1.599 M -17.277,7.406 c -10e-4,0.871 -0.744,1.619 -1.621,1.636 -0.855,0.017 -1.628,-0.751 -1.633,-1.622 -0.006,-0.884 0.729,-1.616 1.621,-1.618 0.892,-10e-4 1.635,0.727 1.633,1.604 m -14.307,8.024 c -0.009,0.878 -0.752,1.606 -1.641,1.609 -0.877,0.002 -1.619,-0.749 -1.611,-1.632 0.007,-0.89 0.749,-1.622 1.632,-1.608 0.89,0.014 1.628,0.757 1.62,1.631 M 0.297,11.041 c 0.866,-0.004 1.626,0.751 1.633,1.621 0.007,0.885 -0.73,1.629 -1.614,1.629 -0.892,-0.001 -1.638,-0.738 -1.63,-1.612 0.007,-0.89 0.74,-1.635 1.611,-1.638 m -28.079,-22.963 c -2.529,-0.443 -4.986,-0.875 -7.443,-1.307 0.077,-0.117 0.164,-0.18 0.26,-0.193 1.902,-0.259 3.807,-0.51 5.709,-0.768 0.259,-0.036 0.444,0.052 0.55,0.278 0.301,0.635 0.592,1.274 0.924,1.99 m 18.114,30.253 c -0.004,-0.932 0.693,-1.651 1.603,-1.653 0.931,-0.003 1.671,0.718 1.672,1.631 10e-4,0.903 -0.754,1.667 -1.654,1.67 -0.899,0.003 -1.618,-0.727 -1.621,-1.648 m -28.603,-33.086 c 0.912,0 1.638,0.718 1.646,1.627 0.008,0.888 -0.738,1.649 -1.627,1.66 -0.892,0.012 -1.685,-0.757 -1.694,-1.64 -0.01,-0.89 0.76,-1.647 1.675,-1.647 m 45.806,4.206 c -0.935,0.002 -1.679,-0.722 -1.674,-1.631 0.005,-0.9 0.741,-1.633 1.645,-1.634 0.919,-0.003 1.68,0.737 1.683,1.636 0.003,0.877 -0.757,1.627 -1.654,1.629 m 2.814,-0.333 c 1.974,0.789 3.913,1.565 5.852,2.339 0.911,0.364 0.908,0.364 0.702,1.319 -0.055,0.255 -0.192,0.418 -0.438,0.5 -1.229,0.412 -2.454,0.831 -3.687,1.233 -0.089,0.029 -0.257,-0.026 -0.32,-0.099 -0.196,-0.228 -0.359,-0.484 -0.535,-0.729 -0.815,-1.134 -1.629,-2.269 -2.452,-3.414 0.295,-0.386 0.579,-0.757 0.878,-1.149 m -38.862,-3.386 c 0.083,-0.026 0.132,-0.049 0.185,-0.056 1.846,-0.258 3.692,-0.519 5.541,-0.762 0.128,-0.017 0.31,0.064 0.404,0.161 0.544,0.562 1.065,1.146 1.603,1.713 0.121,0.129 0.134,0.223 0.038,0.374 -0.357,0.567 -0.707,1.138 -1.043,1.718 -0.105,0.182 -0.228,0.208 -0.41,0.176 -1.649,-0.292 -3.299,-0.577 -4.946,-0.875 -0.128,-0.024 -0.296,-0.111 -0.347,-0.216 -0.354,-0.732 -0.681,-1.476 -1.025,-2.233 m 11.38,8.231 c -1.623,0.098 -3.322,-1.409 -3.362,-3.376 -0.033,-1.614 1.368,-3.375 3.434,-3.4 1.853,-0.021 3.36,1.501 3.363,3.366 0.004,1.971 -1.445,3.409 -3.435,3.41 m 29.39,0.712 c -0.141,0.054 -0.252,0.102 -0.367,0.141 -3.442,1.15 -6.884,2.298 -10.326,3.448 -0.529,0.175 -0.529,0.175 -0.818,-0.336 0.704,-0.944 1.412,-1.893 2.122,-2.842 1.031,-1.379 2.064,-2.757 3.095,-4.136 0.123,-0.164 0.239,-0.343 0.488,-0.256 0.946,0.331 1.848,0.194 2.737,-0.285 1.021,1.419 2.038,2.832 3.069,4.266 m -34.39,-9.83 c 0.118,-0.033 0.181,-0.058 0.246,-0.067 2.968,-0.408 5.937,-0.814 8.906,-1.222 3.2,-0.44 6.401,-0.88 9.602,-1.321 0.498,-0.068 0.996,-0.14 1.495,-0.202 0.063,-0.008 0.131,0.04 0.197,0.063 -0.041,0.057 -0.073,0.122 -0.122,0.17 -0.039,0.037 -0.097,0.051 -0.148,0.076 -3.569,1.781 -7.138,3.563 -10.708,5.344 -0.087,0.043 -0.179,0.076 -0.275,0.117 -0.896,-1.157 -2.012,-1.92 -3.469,-2.118 -1.467,-0.202 -2.754,0.246 -3.932,1.122 -0.595,-0.652 -1.174,-1.286 -1.792,-1.962 m -0.67,-0.257 c -0.138,0.02 -0.202,0.031 -0.265,0.04 -1.683,0.232 -3.368,0.462 -5.05,0.698 -0.528,0.074 -0.544,0.076 -0.763,-0.409 -1.713,-3.799 -3.426,-7.598 -5.138,-11.397 -0.048,-0.108 -0.088,-0.22 -0.136,-0.338 0.197,-0.126 0.364,-0.232 0.55,-0.351 3.595,3.913 7.174,7.808 10.802,11.757 m 5.673,20.283 c -0.115,-0.056 -0.204,-0.099 -0.293,-0.142 -0.091,-0.042 -0.181,-0.088 -0.274,-0.125 -0.45,-0.175 -0.484,-0.223 -0.425,-0.687 0.291,-2.33 0.583,-4.661 0.877,-6.991 0.056,-0.45 0.118,-0.9 0.18,-1.357 1.571,-0.103 2.875,-0.679 3.869,-1.895 1.087,0.659 2.153,1.305 3.243,1.967 -2.409,3.098 -4.79,6.161 -7.177,9.23 m 4.582,-12.272 c 0.427,-1.041 0.538,-2.081 0.289,-3.151 -0.115,-0.497 -0.12,-0.496 0.354,-0.732 3.387,-1.694 6.774,-3.387 10.163,-5.079 0.129,-0.065 0.263,-0.12 0.398,-0.173 0.224,-0.089 0.422,-0.01 0.513,0.183 0.044,0.094 -0.026,0.285 -0.105,0.385 -2.018,2.611 -4.043,5.214 -6.069,7.819 -0.72,0.925 -1.44,1.849 -2.171,2.788 -1.127,-0.682 -2.235,-1.353 -3.372,-2.04 M 23.207,8.929 C 23.161,8.951 23.114,8.975 23.067,8.997 22.924,8.856 22.755,8.732 22.639,8.571 19.597,4.353 16.561,0.13 13.523,-4.093 c -0.054,-0.076 -0.1,-0.159 -0.166,-0.264 1.157,-0.381 2.285,-0.738 3.401,-1.129 0.376,-0.132 0.618,-0.062 0.871,0.242 0.498,0.597 1.13,0.99 1.929,1.019 0.377,0.015 0.556,0.176 0.645,0.537 0.987,4.013 1.984,8.025 2.973,12.039 0.045,0.183 0.022,0.384 0.031,0.578 M -22.098,-9.65 c 0.022,0.172 0.044,0.326 0.06,0.479 0.225,2.173 1.33,3.685 3.385,4.459 0.288,0.108 0.329,0.237 0.294,0.513 -0.272,2.085 -0.526,4.171 -0.786,6.257 -0.081,0.655 -0.164,1.309 -0.25,1.963 -0.034,0.255 -0.158,0.434 -0.433,0.484 -0.304,0.056 -0.308,-0.204 -0.382,-0.367 -1.694,-3.746 -3.384,-7.494 -5.074,-11.242 -0.5,-1.109 -0.999,-2.217 -1.518,-3.368 1.593,0.279 3.142,0.548 4.704,0.822 m -6.881,-4.908 c -2.129,0.292 -4.196,0.577 -6.256,0.859 -0.554,-1.335 -0.552,-1.337 -1.649,-2.133 -0.234,-0.169 -0.262,-0.386 -0.218,-0.651 0.505,-3.01 1.01,-6.02 1.502,-9.031 0.154,-0.938 0.139,-0.941 1.051,-1.123 0.031,-0.006 0.066,0.002 0.123,0.005 1.806,4.004 3.614,8.014 5.447,12.074 m -7.056,3.584 c 0.179,-0.28 0.35,-0.517 0.487,-0.772 0.105,-0.195 0.242,-0.226 0.44,-0.19 2.432,0.431 4.863,0.868 7.298,1.277 0.464,0.078 0.719,0.296 0.909,0.717 2.104,4.687 4.224,9.369 6.34,14.051 0.259,0.574 0.26,0.574 -0.271,0.919 -0.017,0.011 -0.042,0.008 -0.091,0.017 -5.024,-5.326 -10.059,-10.663 -15.112,-16.019 m 24.814,28.779 c -0.115,-0.019 -0.17,-0.03 -0.225,-0.035 -1.256,-0.146 -2.511,-0.29 -3.767,-0.434 -2.222,-0.256 -4.444,-0.512 -6.666,-0.768 -2.444,-0.282 -4.888,-0.571 -7.333,-0.842 -0.925,-0.103 -0.918,-0.085 -1.031,-0.998 -0.024,-0.195 0.034,-0.277 0.192,-0.364 2.824,-1.569 5.647,-3.141 8.466,-4.719 0.23,-0.128 0.42,-0.114 0.617,0.041 1.225,0.96 2.501,1.043 3.822,0.209 0.17,-0.108 0.268,-0.07 0.397,0.063 0.423,0.433 0.858,0.852 1.289,1.275 1.621,1.592 3.242,3.184 4.862,4.777 0.108,0.105 0.244,0.183 0.134,0.388 -0.216,0.405 -0.397,0.827 -0.601,1.237 -0.038,0.075 -0.118,0.13 -0.156,0.17 M 22.71,9.221 c -0.219,0.273 -0.434,0.505 -0.605,0.765 -0.158,0.241 -0.303,0.235 -0.55,0.124 C 14.934,7.153 8.31,4.204 1.68,1.266 1.377,1.132 1.306,0.985 1.383,0.687 1.439,0.473 1.473,0.245 1.472,0.024 1.47,-0.301 1.629,-0.436 1.923,-0.533 5.463,-1.711 8.999,-2.9 12.536,-4.087 c 0.476,-0.159 0.505,-0.15 0.803,0.265 2.102,2.924 4.206,5.848 6.307,8.773 1.018,1.416 2.035,2.834 3.064,4.27 m -56.041,-36.564 c 0.297,-0.661 0.454,-0.739 1.116,-0.542 9.967,2.965 19.933,5.93 29.899,8.897 0.117,0.035 0.261,0.057 0.336,0.137 0.093,0.103 0.167,0.258 0.171,0.394 0.002,0.061 -0.172,0.173 -0.278,0.188 -0.873,0.132 -1.749,0.248 -2.624,0.368 -2.868,0.393 -5.736,0.788 -8.605,1.181 -2.846,0.391 -5.694,0.774 -8.538,1.178 -0.387,0.055 -0.659,-0.035 -0.92,-0.319 -3.058,-3.329 -6.123,-6.652 -9.186,-9.977 -0.461,-0.501 -0.917,-1.008 -1.371,-1.505 m 25.743,48.708 c 0.179,-0.054 0.359,-0.106 0.536,-0.167 1.659,-0.562 2.48,-2.378 1.825,-4.039 -0.632,-1.605 -2.5,-2.345 -4.096,-1.613 -0.252,0.115 -0.486,0.269 -0.756,0.423 -2.172,-2.144 -4.353,-4.295 -6.546,-6.459 1.109,-1.557 1.019,-3.037 -0.262,-4.442 2.405,-3.093 4.792,-6.167 7.196,-9.258 0.12,0.068 0.226,0.126 0.33,0.187 1.42,0.85 2.838,1.701 4.259,2.547 0.476,0.282 0.543,0.718 0.524,1.217 -0.014,0.353 -0.018,0.721 0.064,1.061 0.3,1.237 1.471,2.153 2.77,2.209 0.143,0.007 0.288,10e-4 0.463,10e-4 0.328,2.209 0.652,4.396 0.982,6.619 -1.097,0.308 -1.897,0.946 -2.284,2.035 -0.251,0.707 -0.215,1.408 0.052,2.099 0.541,1.406 1.992,2.189 3.466,1.874 C 2.458,15.335 3.444,14.038 3.352,12.485 3.25,10.799 2.102,9.794 0.01,9.593 -0.315,7.408 -0.644,5.214 -0.974,2.995 -0.025,2.75 0.67,2.203 1.168,1.375 c 6.88,3.062 13.736,6.114 20.508,9.128 0,0.642 -0.084,1.231 0.016,1.787 0.258,1.425 1.5,2.41 2.936,2.422 1.424,0.012 2.64,-0.941 2.979,-2.335 0.013,-0.051 0.043,-0.098 0.066,-0.146 V 11.224 C 27.61,11.011 27.56,10.794 27.484,10.585 27.09,9.483 26.3,8.852 25.152,8.667 24.529,8.567 24.53,8.577 24.376,7.96 c -0.998,-4.001 -1.993,-8.002 -3.004,-12 -0.075,-0.3 -0.012,-0.443 0.236,-0.62 1.248,-0.898 1.654,-2.078 1.235,-3.493 -0.608,-2.051 -3.144,-2.817 -4.764,-1.424 -0.352,0.303 -0.642,0.679 -0.985,1.046 -2.187,-0.871 -4.406,-1.755 -6.633,-2.643 0.034,-0.33 0.09,-0.648 0.096,-0.968 0.028,-1.601 -1.107,-2.872 -2.735,-3.08 -1.446,-0.183 -2.942,0.858 -3.276,2.301 -0.206,0.89 0.046,1.709 0.487,2.473 0.139,0.241 0.124,0.395 -0.041,0.615 -1.697,2.252 -3.384,4.512 -5.067,6.773 -0.137,0.184 -0.247,0.251 -0.49,0.165 -0.921,-0.322 -1.803,-0.235 -2.621,0.331 -0.146,0.101 -0.296,0.217 -0.462,0.265 -0.145,0.041 -0.348,0.05 -0.468,-0.021 -1.558,-0.925 -3.105,-1.867 -4.655,-2.806 -0.028,-0.017 -0.049,-0.045 -0.106,-0.098 0.067,-0.091 0.135,-0.187 0.207,-0.279 2.657,-3.42 5.317,-6.837 7.968,-10.262 0.164,-0.212 0.282,-0.229 0.517,-0.118 1.904,0.901 3.877,0.058 4.439,-1.876 0.183,-0.631 0.107,-1.242 -0.119,-1.841 -0.071,-0.185 -0.034,-0.273 0.135,-0.372 3.509,-2.044 7.015,-4.092 10.523,-6.14 0.046,-0.028 0.098,-0.046 0.142,-0.067 1.595,1.527 3.086,1.755 4.468,0.695 1.158,-0.888 1.51,-2.586 0.806,-3.874 -0.716,-1.311 -2.313,-1.914 -3.723,-1.409 -1.662,0.597 -2.183,1.887 -1.728,4.311 -3.602,2.102 -7.211,4.21 -10.82,6.316 -1.08,-1.718 -3.792,-2.137 -5.257,-0.08 -0.136,0.191 -0.261,0.144 -0.428,0.094 -4.273,-1.272 -8.546,-2.543 -12.819,-3.812 -5.762,-1.714 -11.523,-3.431 -17.288,-5.132 -0.432,-0.127 -0.638,-0.315 -0.693,-0.788 -0.294,-2.578 -3.075,-3.364 -4.747,-2.212 -1.806,1.244 -1.765,3.929 0.093,5.092 0.483,0.302 0.524,0.41 0.432,0.961 -0.505,3.044 -1.016,6.087 -1.5,9.135 -0.075,0.474 -0.252,0.711 -0.736,0.834 -1.616,0.41 -2.551,1.853 -2.287,3.447 0.251,1.52 1.637,2.606 3.238,2.532 0.659,-0.032 1.225,-0.315 1.775,-0.708 5.051,5.354 10.096,10.701 15.061,15.963 -0.252,0.629 -0.508,1.183 -0.688,1.76 -0.086,0.277 -0.077,0.608 -0.023,0.896 0.073,0.379 -0.058,0.581 -0.375,0.757 -2.493,1.382 -4.98,2.776 -7.47,4.166 -0.263,0.146 -0.53,0.289 -0.791,0.44 -0.208,0.121 -0.398,0.12 -0.585,-0.042 -1.021,-0.879 -2.155,-1.002 -3.388,-0.519 -0.09,0.035 -0.271,10e-4 -0.333,-0.07 -2.461,-2.783 -4.912,-5.575 -7.318,-8.311 0.174,-0.507 0.398,-0.956 0.481,-1.43 0.289,-1.648 -0.824,-3.205 -2.448,-3.485 -1.646,-0.285 -3.236,0.775 -3.528,2.353 -0.324,1.752 0.7,3.332 2.385,3.657 0.548,0.106 1.097,0.059 1.616,-0.152 0.352,-0.144 0.609,-0.072 0.859,0.214 2.305,2.638 4.62,5.268 6.923,7.908 0.079,0.092 0.108,0.281 0.077,0.405 -0.07,0.292 -0.2,0.569 -0.29,0.857 -0.481,1.547 0.328,3.148 1.867,3.704 1.515,0.546 3.207,-0.19 3.82,-1.664 0.038,-0.093 0.076,-0.188 0.103,-0.284 0.081,-0.301 0.273,-0.408 0.577,-0.371 1.111,0.131 2.223,0.256 3.334,0.384 2.256,0.259 4.512,0.515 6.767,0.776 2.412,0.278 4.822,0.56 7.233,0.841 0.322,0.037 0.644,0.08 0.967,0.108 0.208,0.019 0.291,0.114 0.344,0.321 0.123,0.474 0.246,0.956 0.45,1.398 0.385,0.834 1.054,1.342 1.97,1.504 0.053,0.009 0.103,0.039 0.154,0.058 z"
             style="fill:#ffffff;fill-opacity:1;fill-rule:nonzero;stroke:none"
             id="path292" />
        </g>
        <g
           id="g294"
           transform="translate(338.5059,195.8244)">
          <path
             d="M 0,0 C 0.002,0.923 -0.69,1.638 -1.587,1.639 -2.462,1.64 -3.187,0.917 -3.188,0.041 -3.189,-0.872 -2.489,-1.605 -1.61,-1.612 -0.707,-1.619 -0.002,-0.913 0,0 m -4.642,0.015 c 0,1.678 1.375,3.054 3.052,3.054 C 0.075,3.068 1.476,1.68 1.483,0.02 c 0.009,-1.686 -1.381,-3.049 -3.1,-3.039 -1.687,0.01 -3.026,1.353 -3.025,3.034"
             style="fill:#ffffff;fill-opacity:1;fill-rule:nonzero;stroke:none"
             id="path296" />
        </g>
        <g
           id="g298"
           transform="translate(323.2032,218.0373)">
          <path
             d="M 0,0 C 1.99,-0.001 3.438,-1.438 3.435,-3.41 3.432,-5.274 1.925,-6.797 0.072,-6.775 -1.994,-6.751 -3.396,-4.99 -3.362,-3.376 -3.322,-1.409 -1.623,0.098 0,0"
             style="fill:#000100;fill-opacity:1;fill-rule:nonzero;stroke:none"
             id="path300" />
        </g>
        <g
           id="g302"
           transform="translate(334.2071,242.4025)">
          <path
             d="m 0,0 c 0,-1.05 -0.852,-1.901 -1.901,-1.901 -1.051,0 -1.903,0.851 -1.903,1.901 0,1.051 0.852,1.901 1.903,1.901 C -0.852,1.901 0,1.051 0,0"
             style="fill:#575858;fill-opacity:1;fill-rule:nonzero;stroke:none"
             id="path304" />
        </g>
        <g
           id="g306"
           transform="translate(366.8907,235.7238)">
          <path
             d="m 0,0 c 0,-1.051 -0.852,-1.902 -1.901,-1.902 -1.051,0 -1.903,0.851 -1.903,1.902 0,1.05 0.852,1.901 1.903,1.901 C -0.852,1.901 0,1.05 0,0"
             style="fill:#801a23;fill-opacity:1;fill-rule:nonzero;stroke:none"
             id="path308" />
        </g>
        <g
           id="g310"
           transform="translate(342.545,236.7404)">
          <path
             d="m 0,0 c 0,-1.051 -0.852,-1.902 -1.901,-1.902 -1.051,0 -1.903,0.851 -1.903,1.902 0,1.05 0.852,1.901 1.903,1.901 C -0.852,1.901 0,1.05 0,0"
             style="fill:#237739;fill-opacity:1;fill-rule:nonzero;stroke:none"
             id="path312" />
        </g>
        <g
           id="g314"
           transform="translate(340.6436,224.0441)">
          <path
             d="m 0,0 c 0,-1.051 -0.852,-1.902 -1.902,-1.902 -1.05,0 -1.902,0.851 -1.902,1.902 0,1.05 0.852,1.901 1.902,1.901 C -0.852,1.901 0,1.05 0,0"
             style="fill:#801a23;fill-opacity:1;fill-rule:nonzero;stroke:none"
             id="path316" />
        </g>
        <g
           id="g318"
           transform="translate(362.211,216.8586)">
          <path
             d="m 0,0 c 0,-1.051 -0.852,-1.902 -1.902,-1.902 -1.05,0 -1.902,0.851 -1.902,1.902 0,1.05 0.852,1.901 1.902,1.901 C -0.852,1.901 0,1.05 0,0"
             style="fill:#237739;fill-opacity:1;fill-rule:nonzero;stroke:none"
             id="path320" />
        </g>
        <g
           id="g322"
           transform="translate(349.7627,211.8771)">
          <path
             d="m 0,0 c 0,-1.051 -0.852,-1.902 -1.901,-1.902 -1.051,0 -1.903,0.851 -1.903,1.902 0,1.05 0.852,1.901 1.903,1.901 C -0.852,1.901 0,1.05 0,0"
             style="fill:#575858;fill-opacity:1;fill-rule:nonzero;stroke:none"
             id="path324" />
        </g>
        <g
           id="g326"
           transform="translate(355.9698,196.2169)">
          <path
             d="M 0,0 C 0.067,1.049 0.972,1.843 2.021,1.775 3.068,1.708 3.863,0.804 3.796,-0.245 3.729,-1.293 2.823,-2.088 1.775,-2.021 0.728,-1.952 -0.067,-1.048 0,0"
             style="fill:#237739;fill-opacity:1;fill-rule:nonzero;stroke:none"
             id="path328" />
        </g>
        <g
           id="g330"
           transform="translate(335.0293,195.9601)">
          <path
             d="M 0,0 C 0.067,1.048 0.972,1.843 2.02,1.775 3.068,1.708 3.863,0.803 3.795,-0.245 3.728,-1.293 2.823,-2.088 1.775,-2.021 0.727,-1.953 -0.068,-1.049 0,0"
             style="fill:#237739;fill-opacity:1;fill-rule:nonzero;stroke:none"
             id="path332" />
        </g>
        <g
           id="g334"
           transform="translate(339.7188,205.6261)">
          <path
             d="M 0,0 C 0.068,1.048 0.973,1.843 2.021,1.775 3.068,1.707 3.863,0.803 3.796,-0.245 3.729,-1.293 2.824,-2.088 1.775,-2.021 0.728,-1.953 -0.067,-1.049 0,0"
             style="fill:#801a23;fill-opacity:1;fill-rule:nonzero;stroke:none"
             id="path336" />
        </g>
        <g
           id="g338"
           transform="translate(302.8599,194.6525)">
          <path
             d="M 0,0 C 0.068,1.049 0.972,1.844 2.021,1.775 3.069,1.708 3.863,0.804 3.796,-0.244 3.728,-1.293 2.824,-2.088 1.775,-2.02 0.728,-1.952 -0.067,-1.048 0,0"
             style="fill:#801a23;fill-opacity:1;fill-rule:nonzero;stroke:none"
             id="path340" />
        </g>
        <g
           id="g342"
           transform="translate(300.1529,211.0861)">
          <path
             d="M 0,0 C 0.067,1.048 0.972,1.843 2.02,1.775 3.068,1.707 3.863,0.803 3.795,-0.245 3.728,-1.293 2.823,-2.088 1.775,-2.021 0.727,-1.953 -0.068,-1.049 0,0"
             style="fill:#575858;fill-opacity:1;fill-rule:nonzero;stroke:none"
             id="path344" />
        </g>
        <g
           id="g346"
           transform="translate(305.2276,239.6154)">
          <path
             d="M 0,0 C 0.068,1.049 0.972,1.844 2.021,1.775 3.068,1.708 3.863,0.804 3.796,-0.245 3.729,-1.293 2.823,-2.088 1.775,-2.021 0.728,-1.952 -0.067,-1.048 0,0"
             style="fill:#237739;fill-opacity:1;fill-rule:nonzero;stroke:none"
             id="path348" />
        </g>
        <g
           id="g350"
           transform="translate(319.5342,231.6193)">
          <path
             d="M 0,0 C 0.067,1.048 0.972,1.843 2.02,1.775 3.068,1.708 3.863,0.803 3.795,-0.245 3.728,-1.293 2.823,-2.088 1.775,-2.021 0.727,-1.953 -0.068,-1.048 0,0"
             style="fill:#237739;fill-opacity:1;fill-rule:nonzero;stroke:none"
             id="path352" />
        </g>
        <g
           id="g354"
           transform="translate(293.7359,226.5548)">
          <path
             d="M 0,0 C 0.068,1.049 0.972,1.843 2.021,1.775 3.068,1.708 3.863,0.804 3.796,-0.245 3.728,-1.293 2.824,-2.088 1.775,-2.021 0.727,-1.952 -0.067,-1.048 0,0"
             style="fill:#801a23;fill-opacity:1;fill-rule:nonzero;stroke:none"
             id="path356" />
        </g>
      </g>
    </g>
  </g>
</svg>
