<?xml version="1.0" encoding="UTF-8" standalone="no"?>
<!-- Created with Inkscape (http://www.inkscape.org/) -->

<svg
   width="600"
   height="400"
   viewBox="0 0 158.75 105.83333"
   version="1.1"
   id="svg1312"
   inkscape:version="1.3 (0e150ed, 2023-07-21)"
   sodipodi:docname="logo horizontal.svg"
   inkscape:export-filename="logo horizontal reexport.svg"
   inkscape:export-xdpi="96"
   inkscape:export-ydpi="96"
   xmlns:inkscape="http://www.inkscape.org/namespaces/inkscape"
   xmlns:sodipodi="http://sodipodi.sourceforge.net/DTD/sodipodi-0.dtd"
   xmlns="http://www.w3.org/2000/svg"
   xmlns:svg="http://www.w3.org/2000/svg">
  <sodipodi:namedview
     id="namedview1314"
     pagecolor="#ffffff"
     bordercolor="#666666"
     borderopacity="1.0"
     inkscape:showpageshadow="2"
     inkscape:pageopacity="0.0"
     inkscape:pagecheckerboard="0"
     inkscape:deskcolor="#d1d1d1"
     inkscape:document-units="mm"
     showgrid="false"
     inkscape:zoom="1.284971"
     inkscape:cx="331.13588"
     inkscape:cy="163.81693"
     inkscape:window-width="1392"
     inkscape:window-height="916"
     inkscape:window-x="43"
     inkscape:window-y="38"
     inkscape:window-maximized="0"
     inkscape:current-layer="layer1" />
  <defs
     id="defs1309">
    <clipPath
       clipPathUnits="userSpaceOnUse"
       id="clipPath116">
      <path
         d="M 0,858.898 H 612.283 V 0 H 0 Z"
         id="path114" />
    </clipPath>
  </defs>
  <g
     inkscape:label="圖層 1"
     inkscape:groupmode="layer"
     id="layer1">
    <text
       xml:space="preserve"
       style="font-variant:normal;font-weight:900;font-stretch:normal;font-size:9.1483px;font-family:'Noto Sans CJK TC Black';-inkscape-font-specification:NotoSansCJKtc-Black;writing-mode:lr-tb;fill:#000100;fill-opacity:1;fill-rule:nonzero;stroke:none;stroke-width:0.352778"
       id="text104"
       x="61.043045"
       y="49.573467"><tspan
         x="61.043045 66.166092 71.709969 76.512833 80.382545 85.295197 91.314789 96.767166 101.6798 107.47984 109.5748 115.03634 120.58021"
         y="49.573467"
         sodipodi:role="line"
         id="tspan102"
         style="stroke-width:0.352778">Factcheck Lab</tspan></text>
    <text
       xml:space="preserve"
       style="font-variant:normal;font-weight:500;font-stretch:normal;font-size:7.98844px;font-family:'Noto Sans CJK TC Medium';-inkscape-font-specification:NotoSansCJKtc-Medium;writing-mode:lr-tb;fill:#000100;fill-opacity:1;fill-rule:nonzero;stroke:none;stroke-width:0.352778"
       id="text108"
       x="60.802589"
       y="59.754772"><tspan
         x="60.802589 70.388718 79.974846 89.560982 99.147102 108.73324 118.31936"
         y="59.754772"
         sodipodi:role="line"
         id="tspan106"
         style="stroke-width:0.352778">事實查核實驗室</tspan></text>
    <g
       id="g110"
       transform="matrix(0.35277777,0,0,-0.35277777,-72.28628,232.0097)">
      <g
         id="g112"
         clip-path="url(#clipPath116)">
        <g
           id="g118"
           transform="translate(339.6446,518.4454)">
          <path
             d="M 0,0 C 0.007,0.999 -0.714,1.744 -1.699,1.757 -2.653,1.769 -3.433,0.996 -3.441,0.027 -3.45,-0.932 -2.642,-1.766 -1.706,-1.764 -0.763,-1.761 -0.006,-0.979 0,0 m -38.29,-30.032 c -0.959,0.001 -1.746,-0.766 -1.76,-1.715 -0.014,-0.932 0.788,-1.744 1.73,-1.752 0.987,-0.008 1.769,0.764 1.765,1.742 -0.004,0.969 -0.764,1.724 -1.735,1.725 m 41.391,10.064 c 0.003,0.98 -0.778,1.778 -1.736,1.771 -0.951,-0.007 -1.737,-0.792 -1.739,-1.739 -0.003,-0.963 0.795,-1.777 1.743,-1.779 0.933,-0.003 1.727,0.799 1.732,1.747 m -51.244,24.27 c -0.938,-0.003 -1.735,-0.798 -1.742,-1.738 -0.007,-0.955 0.795,-1.735 1.778,-1.731 0.953,0.004 1.758,0.801 1.747,1.729 -0.012,0.959 -0.814,1.742 -1.783,1.74 m 76.397,8.257 c 0.004,0.977 -0.781,1.773 -1.743,1.766 -0.942,-0.006 -1.698,-0.783 -1.741,-1.706 -0.037,-0.78 0.63,-1.792 1.753,-1.807 0.933,-0.012 1.728,0.802 1.731,1.747 m -66.165,-26.773 c 0.042,-0.218 0.205,-0.188 0.343,-0.207 0.986,-0.136 1.972,-0.276 2.96,-0.407 1.034,-0.137 2.071,-0.263 3.106,-0.398 0.234,-0.031 0.444,0.005 0.554,0.232 0.339,0.707 0.666,1.421 1.02,2.181 -2.7,-0.474 -5.34,-0.937 -7.983,-1.401 M 20.601,-29.96 c -0.025,1.019 -0.818,1.758 -1.861,1.734 -0.914,-0.02 -1.656,-0.853 -1.644,-1.845 0.009,-0.901 0.862,-1.716 1.769,-1.693 0.971,0.025 1.759,0.844 1.736,1.804 m -0.882,22.212 c 10e-4,-0.976 0.751,-1.744 1.714,-1.753 0.95,-0.01 1.794,0.796 1.813,1.731 0.02,0.927 -0.854,1.802 -1.795,1.799 -0.967,-0.003 -1.733,-0.789 -1.732,-1.777 m -53.706,24.377 c -0.005,0.957 -0.811,1.754 -1.779,1.758 -0.961,0.003 -1.762,-0.804 -1.758,-1.772 0.003,-0.969 0.805,-1.763 1.771,-1.755 0.965,0.008 1.771,0.816 1.766,1.769 M -18.589,8.01 c -0.004,0.944 -0.831,1.77 -1.775,1.772 -0.94,0.002 -1.767,-0.832 -1.765,-1.78 0.002,-0.963 0.801,-1.751 1.774,-1.749 0.97,0.002 1.77,0.797 1.766,1.757 m 18.896,3.881 c 0.944,-0.003 1.768,0.819 1.773,1.768 0.005,0.967 -0.794,1.772 -1.757,1.769 -0.975,-0.002 -1.787,-0.806 -1.773,-1.757 0.014,-0.975 0.805,-1.777 1.757,-1.78 m -10.739,7.895 c -0.013,-1.005 0.731,-1.812 1.681,-1.823 1.018,-0.011 1.855,0.744 1.871,1.686 0.017,1.035 -0.793,1.894 -1.792,1.9 -0.963,0.007 -1.746,-0.779 -1.76,-1.763 m -30.773,-35.65 c 0.993,0 1.788,0.784 1.791,1.769 0.004,0.967 -0.815,1.794 -1.781,1.798 -0.967,0.004 -1.83,-0.85 -1.825,-1.805 0.007,-0.957 0.836,-1.762 1.815,-1.762 m 49.309,4.553 c -0.823,0.077 -1.806,-0.611 -1.823,-1.768 -0.013,-0.978 0.805,-1.773 1.791,-1.773 0.999,-10e-4 1.821,0.811 1.817,1.795 -0.004,0.938 -0.828,1.745 -1.785,1.746 m 10.183,2.616 c -0.05,0.361 -0.098,0.657 -0.131,0.955 -0.032,0.291 -0.209,0.443 -0.468,0.53 -1.315,0.442 -2.632,0.88 -3.944,1.333 -0.168,0.058 -0.252,0.038 -0.353,-0.104 -1.019,-1.428 -2.041,-2.852 -3.07,-4.273 -0.101,-0.141 -0.113,-0.236 0.002,-0.374 0.23,-0.278 0.446,-0.567 0.655,-0.86 0.097,-0.137 0.185,-0.176 0.353,-0.108 2.242,0.903 4.487,1.797 6.731,2.694 0.122,0.049 0.268,0.08 0.225,0.207 m -48.985,-6.655 c 0.48,-0.067 0.919,-0.128 1.358,-0.189 1.604,-0.224 3.207,-0.447 4.811,-0.672 0.172,-0.024 0.299,0.039 0.414,0.164 0.569,0.62 1.137,1.241 1.719,1.85 0.146,0.154 0.143,0.265 0.036,0.435 -0.378,0.598 -0.751,1.2 -1.104,1.812 -0.111,0.192 -0.233,0.232 -0.433,0.196 -1.77,-0.313 -3.54,-0.622 -5.311,-0.93 -0.205,-0.035 -0.352,-0.126 -0.438,-0.323 -0.339,-0.764 -0.685,-1.526 -1.052,-2.343 m 15.939,5.247 c 0,2.081 -1.57,3.594 -3.673,3.647 -1.815,0.045 -3.618,-1.58 -3.637,-3.679 -0.018,-1.765 1.533,-3.621 3.71,-3.62 2.176,0 3.663,1.84 3.6,3.652 m -9.08,-6.197 c 1.797,-0.247 3.532,-0.486 5.268,-0.724 1.653,-0.226 3.307,-0.452 4.961,-0.68 1.665,-0.229 3.33,-0.461 4.995,-0.691 1.511,-0.209 3.021,-0.418 4.532,-0.626 0.689,-0.095 1.38,-0.186 2.07,-0.281 0.075,-0.01 0.144,-0.025 0.178,0.064 0.037,0.096 -0.036,0.126 -0.098,0.16 -0.074,0.04 -0.15,0.075 -0.225,0.112 -3.793,1.894 -7.588,3.785 -11.377,5.687 -0.287,0.145 -0.438,0.146 -0.666,-0.13 -1.028,-1.244 -2.347,-1.956 -3.983,-2.021 -1.297,-0.052 -2.458,0.346 -3.501,1.102 -0.146,0.107 -0.231,0.147 -0.376,-0.017 -0.564,-0.64 -1.147,-1.264 -1.778,-1.955 m 33.677,6.04 c 0.105,0.027 0.139,0.127 0.192,0.202 0.998,1.383 1.99,2.771 2.993,4.151 0.132,0.181 0.104,0.237 -0.095,0.303 -3.857,1.282 -7.713,2.565 -11.565,3.862 -0.237,0.08 -0.3,-0.039 -0.394,-0.175 -0.098,-0.139 -0.214,-0.241 -0.054,-0.453 1.853,-2.456 3.691,-4.922 5.53,-7.388 0.156,-0.208 0.31,-0.279 0.58,-0.191 0.871,0.283 1.726,0.207 2.552,-0.19 0.087,-0.042 0.175,-0.081 0.261,-0.121 m -34.445,-6.339 c -0.078,0.043 -0.096,0.061 -0.118,0.064 -1.842,0.252 -3.689,0.485 -5.528,0.764 -0.505,0.077 -0.599,0.09 -0.856,-0.482 -1.834,-4.084 -3.678,-8.162 -5.522,-12.241 -0.089,-0.196 -0.182,-0.352 0.098,-0.49 0.219,-0.108 0.346,-0.235 0.587,0.029 3.148,3.45 6.313,6.883 9.473,10.32 0.618,0.672 1.233,1.345 1.866,2.036 m 5.072,21.087 c 0.033,-0.262 0.065,-0.524 0.098,-0.786 0.21,-1.669 0.421,-3.337 0.629,-5.006 0.13,-1.037 0.257,-2.074 0.381,-3.112 0.025,-0.205 0.071,-0.316 0.334,-0.341 1.479,-0.138 2.758,-0.709 3.738,-1.858 0.135,-0.16 0.218,-0.105 0.35,-0.025 0.993,0.607 1.984,1.22 2.99,1.805 0.258,0.149 0.238,0.237 0.076,0.444 -1.425,1.818 -2.839,3.643 -4.257,5.467 -1.027,1.32 -2.052,2.64 -3.084,3.956 -0.069,0.087 -0.101,0.271 -0.295,0.179 -0.249,-0.116 -0.505,-0.218 -0.754,-0.335 -0.16,-0.075 -0.219,-0.214 -0.206,-0.388 m 6.493,-14.663 c -0.041,-0.378 -0.034,-0.829 -0.19,-1.251 -0.12,-0.318 -0.027,-0.471 0.276,-0.621 3.732,-1.851 7.458,-3.718 11.186,-5.577 0.127,-0.064 0.263,-0.118 0.401,-0.152 0.217,-0.055 0.363,0.063 0.485,0.229 0.133,0.18 -0.047,0.261 -0.121,0.359 -1.007,1.305 -2.02,2.604 -3.032,3.905 -1.875,2.413 -3.755,4.823 -5.619,7.243 -0.189,0.245 -0.308,0.259 -0.563,0.099 -0.996,-0.626 -2.004,-1.232 -3.018,-1.828 -0.223,-0.131 -0.254,-0.241 -0.159,-0.476 0.239,-0.595 0.332,-1.225 0.354,-1.93 m 27.396,5.526 c 1.208,-0.396 2.399,-0.761 3.569,-1.184 0.469,-0.169 0.765,-0.109 1.086,0.28 0.495,0.604 1.145,0.979 1.947,1.042 0.593,0.046 0.641,0.094 0.787,0.685 1.051,4.242 2.105,8.484 3.158,12.726 0.063,0.254 0.19,0.608 -0.046,0.721 C 24.624,9.732 24.455,9.392 24.31,9.19 21.978,5.952 19.647,2.711 17.316,-0.529 16.334,-1.895 15.353,-3.26 14.354,-4.649 m -45.583,-11.02 c -0.122,0.028 -0.223,0.062 -0.328,0.076 -2.009,0.274 -4.02,0.536 -6.027,0.828 -0.308,0.045 -0.393,-0.032 -0.481,-0.308 -0.237,-0.74 -0.661,-1.356 -1.34,-1.769 -0.588,-0.359 -0.613,-0.423 -0.498,-1.103 0.549,-3.252 1.096,-6.503 1.641,-9.755 0.128,-0.766 0.126,-0.754 0.879,-0.896 0.253,-0.048 0.343,0.024 0.443,0.247 1.064,2.382 2.142,4.758 3.214,7.136 0.831,1.842 1.661,3.686 2.497,5.544 m -6.75,2.835 c 0.059,0.008 0.095,0.012 0.131,0.019 2.656,0.472 5.311,0.956 7.971,1.405 0.454,0.077 0.697,0.289 0.874,0.683 2.32,5.153 4.641,10.306 6.984,15.448 0.184,0.404 -0.092,0.447 -0.276,0.621 -0.235,0.223 -0.327,0.007 -0.448,-0.121 -3.529,-3.739 -7.058,-7.478 -10.585,-11.218 -1.743,-1.848 -3.486,-3.695 -5.227,-5.546 -0.077,-0.082 -0.249,-0.165 -0.187,-0.279 0.184,-0.336 0.404,-0.652 0.619,-0.969 0.025,-0.036 0.108,-0.033 0.144,-0.043 m 5.405,28.608 c -0.031,-0.085 0.046,-0.183 0.208,-0.273 3.051,-1.693 6.098,-3.39 9.142,-5.094 0.237,-0.133 0.433,-0.109 0.628,0.046 1.337,1.054 2.724,1.137 4.162,0.218 0.132,-0.084 0.218,-0.087 0.338,0.032 2.245,2.215 4.493,4.427 6.745,6.635 0.111,0.109 0.141,0.188 0.066,0.335 -0.224,0.437 -0.436,0.88 -0.638,1.327 -0.066,0.148 -0.137,0.182 -0.3,0.159 -0.523,-0.075 -1.049,-0.123 -1.575,-0.183 -1.337,-0.153 -2.673,-0.307 -4.01,-0.461 -1.574,-0.182 -3.149,-0.368 -4.724,-0.549 -1.551,-0.178 -3.104,-0.352 -4.655,-0.532 -1.562,-0.181 -3.125,-0.372 -4.688,-0.547 -0.535,-0.059 -0.536,-0.043 -0.606,-0.553 -0.022,-0.154 -0.051,-0.308 -0.093,-0.56 m 46.32,-20.215 c 0.376,-0.052 0.457,0.185 0.577,0.353 3.16,4.392 6.318,8.787 9.474,13.182 0.203,0.282 0.563,0.582 0.547,0.856 -0.017,0.295 -0.406,0.559 -0.606,0.855 -0.142,0.21 -0.269,0.224 -0.5,0.121 C 16.075,7.727 8.909,4.534 1.739,1.35 1.481,1.235 1.391,1.128 1.476,0.845 1.546,0.606 1.571,0.346 1.57,0.096 c -0.002,-0.372 0.18,-0.53 0.52,-0.643 3.713,-1.234 7.421,-2.484 11.131,-3.729 0.204,-0.068 0.41,-0.129 0.525,-0.165 m -48.92,-25.662 c 0.206,0.056 0.426,0.11 0.644,0.175 10.497,3.123 20.993,6.247 31.489,9.372 0.286,0.085 0.57,0.179 0.853,0.278 0.201,0.071 0.246,0.234 0.237,0.434 -0.009,0.223 -0.181,0.196 -0.31,0.214 -1.569,0.221 -3.139,0.439 -4.711,0.652 -2.724,0.37 -5.451,0.733 -8.175,1.104 -2.797,0.381 -5.594,0.757 -8.387,1.165 -0.442,0.064 -0.726,-0.057 -1.011,-0.367 -3.697,-4.027 -7.402,-8.048 -11.101,-12.075 -0.091,-0.099 -0.31,-0.181 -0.185,-0.375 0.159,-0.244 0.279,-0.548 0.657,-0.577 m 6.376,18.946 c 0.041,-0.072 0.101,-0.038 0.156,-0.028 1.56,0.27 3.12,0.543 4.68,0.806 0.143,0.024 0.165,0.081 0.181,0.205 0.049,0.392 0.094,0.787 0.178,1.173 0.436,1.984 1.656,3.283 3.54,3.977 0.271,0.1 0.316,0.213 0.28,0.494 -0.338,2.632 -0.654,5.267 -0.977,7.901 -0.044,0.358 -0.085,0.716 -0.15,1.07 -0.045,0.246 -0.213,0.391 -0.466,0.437 -0.269,0.049 -0.276,-0.173 -0.345,-0.324 -1.82,-4.025 -3.639,-8.049 -5.454,-12.075 -0.545,-1.21 -1.075,-2.427 -1.611,-3.642 -0.009,-0.017 -0.018,-0.033 -0.026,-0.05 0.011,0.002 0.021,0.004 0.032,0.006 -0.006,0.017 -0.012,0.034 -0.018,0.05 m 50.395,-20.675 c -1.279,-1.639 -3.285,-1.941 -4.85,-0.709 -0.986,0.775 -1.241,1.843 -1.112,3.038 0.019,0.178 0.037,0.366 0.106,0.528 0.169,0.388 0.048,0.578 -0.319,0.79 -3.653,2.111 -7.293,4.245 -10.932,6.38 -0.22,0.129 -0.298,0.103 -0.452,-0.108 -1.034,-1.417 -3.584,-2.046 -5.233,-0.115 -0.334,0.391 -0.579,0.44 -1.029,0.305 -10.735,-3.208 -21.474,-6.405 -32.215,-9.594 -0.383,-0.114 -0.537,-0.3 -0.573,-0.698 -0.156,-1.743 -1.469,-2.975 -3.216,-3.054 -1.582,-0.072 -3.034,1.139 -3.329,2.776 -0.223,1.242 0.339,2.577 1.43,3.239 0.467,0.284 0.626,0.578 0.527,1.141 -0.533,3.05 -1.022,6.107 -1.526,9.163 -0.045,0.272 -0.103,0.543 -0.125,0.818 -0.033,0.387 -0.244,0.545 -0.609,0.635 -1.332,0.328 -2.234,1.127 -2.567,2.489 -0.479,1.96 1.065,3.947 3.085,4.009 0.766,0.024 1.449,-0.179 2.062,-0.617 0.185,-0.132 0.268,-0.097 0.409,0.052 5.294,5.621 10.592,11.238 15.896,16.848 0.178,0.189 0.18,0.29 0.025,0.494 -0.609,0.793 -0.824,1.694 -0.652,2.682 0.059,0.337 -0.17,0.47 -0.405,0.601 -2.041,1.143 -4.082,2.285 -6.125,3.426 -0.911,0.508 -1.826,1.009 -2.735,1.521 -0.263,0.148 -0.477,0.143 -0.719,-0.062 -1.055,-0.887 -2.237,-1.045 -3.502,-0.533 -0.253,0.103 -0.377,0.047 -0.54,-0.14 -2.546,-2.908 -5.097,-5.813 -7.657,-8.709 -0.163,-0.185 -0.14,-0.295 -0.033,-0.483 1.143,-2.012 0.154,-4.374 -2.056,-4.927 -1.701,-0.425 -3.433,0.596 -3.932,2.313 -0.024,0.084 0.023,0.204 -0.099,0.25 V 3.29 c 0.024,0.023 0.061,0.041 0.07,0.068 0.67,2.045 2.35,2.921 4.371,2.258 0.365,-0.119 0.613,-0.024 0.854,0.251 2.48,2.835 4.965,5.666 7.454,8.494 0.125,0.143 0.164,0.267 0.09,0.45 -0.125,0.311 -0.232,0.629 -0.331,0.949 -0.374,1.218 -0.083,2.287 0.799,3.177 0.891,0.898 1.986,1.192 3.209,0.857 1.092,-0.298 1.845,-0.999 2.209,-2.081 0.12,-0.358 0.305,-0.55 0.708,-0.481 0.308,0.053 0.62,0.069 0.931,0.105 1.551,0.183 3.102,0.37 4.652,0.548 1.577,0.181 3.153,0.352 4.729,0.532 1.575,0.181 3.149,0.37 4.724,0.553 1.516,0.176 3.032,0.35 4.547,0.52 0.253,0.028 0.411,0.111 0.42,0.401 0.006,0.176 0.064,0.354 0.115,0.526 0.317,1.094 0.853,2.008 1.996,2.427 0.172,0.064 0.371,0.051 0.52,0.179 h 1.157 c 0.209,-0.063 0.422,-0.116 0.628,-0.19 1.806,-0.646 2.665,-2.69 1.877,-4.46 -0.775,-1.745 -2.864,-2.431 -4.595,-1.518 -0.199,0.104 -0.385,0.359 -0.581,0.301 -0.205,-0.061 -0.359,-0.302 -0.53,-0.47 -2.093,-2.063 -4.182,-4.13 -6.28,-6.188 -0.171,-0.168 -0.215,-0.27 -0.067,-0.499 0.968,-1.512 0.884,-2.864 -0.25,-4.277 -0.139,-0.172 -0.182,-0.271 -0.025,-0.473 2.468,-3.157 4.926,-6.322 7.377,-9.491 0.151,-0.195 0.246,-0.208 0.455,-0.08 1.39,0.857 2.76,1.752 4.197,2.521 0.818,0.437 1.074,0.964 1.003,1.868 -0.126,1.619 1.281,3.105 2.916,3.221 0.048,0.004 0.096,0.004 0.144,0.006 0.536,0.026 0.522,0.028 0.6,0.565 0.299,2.056 0.603,4.11 0.916,6.164 0.041,0.269 0.028,0.406 -0.289,0.51 -1.464,0.485 -2.315,1.725 -2.291,3.26 0.022,1.354 0.983,2.611 2.319,3.032 1.776,0.558 3.743,-0.535 4.17,-2.319 C 3.972,12.589 2.795,10.769 0.888,10.444 0.746,10.42 0.596,10.362 0.462,10.385 0.061,10.457 -0.024,10.254 -0.074,9.908 -0.378,7.781 -0.702,5.656 -1.022,3.531 -1.052,3.338 -1.016,3.242 -0.8,3.177 0,2.937 0.635,2.455 1.085,1.75 1.21,1.556 1.314,1.542 1.516,1.632 c 7.208,3.215 14.418,6.425 21.63,9.629 0.215,0.096 0.254,0.185 0.202,0.423 -0.451,2.054 0.631,3.734 2.647,4.142 1.864,0.378 3.761,-1.164 3.772,-3.067 C 29.777,11.015 28.902,9.796 27.354,9.4 27.214,9.365 27.068,9.313 26.931,9.323 26.477,9.358 26.342,9.089 26.248,8.711 25.162,4.328 24.067,-0.054 22.973,-4.435 22.923,-4.636 22.937,-4.761 23.14,-4.9 c 0.865,-0.592 1.471,-1.357 1.594,-2.452 0.144,-1.275 -0.507,-2.636 -1.597,-3.24 -1.254,-0.695 -2.629,-0.584 -3.7,0.295 -0.329,0.27 -0.614,0.582 -0.843,0.936 -0.128,0.196 -0.24,0.192 -0.434,0.114 -2.21,-0.886 -4.423,-1.768 -6.64,-2.639 -0.239,-0.094 -0.295,-0.202 -0.241,-0.448 0.459,-2.101 -1.068,-3.996 -3.184,-4.047 -1.783,-0.042 -4.016,1.784 -3.09,4.339 0.123,0.338 0.266,0.67 0.463,0.972 0.094,0.143 0.082,0.241 -0.023,0.38 -1.877,2.501 -3.749,5.006 -5.618,7.513 -0.101,0.136 -0.186,0.169 -0.352,0.109 -1.08,-0.39 -2.103,-0.289 -3.036,0.409 -0.39,0.292 -0.728,0.318 -1.172,0.037 -1.501,-0.95 -3.032,-1.854 -4.557,-2.764 -0.249,-0.148 -0.255,-0.244 -0.077,-0.473 2.887,-3.699 5.764,-7.406 8.638,-11.116 0.148,-0.192 0.258,-0.2 0.47,-0.1 2.07,0.987 4.175,0.121 4.82,-1.965 0.212,-0.687 0.146,-1.357 -0.11,-2.011 -0.086,-0.22 -0.031,-0.307 0.157,-0.417 3.729,-2.172 7.455,-4.348 11.177,-6.531 0.215,-0.126 0.321,-0.119 0.493,0.083 1.374,1.612 3.687,1.658 5.059,0.089 0.786,-0.9 0.952,-1.965 0.667,-3.111 -0.025,-0.104 -0.058,-0.207 -0.087,-0.311 -0.106,-0.194 -0.213,-0.389 -0.32,-0.583"
             style="fill:#0a0a09;fill-opacity:1;fill-rule:nonzero;stroke:none"
             id="path120" />
        </g>
        <g
           id="g122"
           transform="translate(337.6797,488.0612)">
          <path
             d="M 0,0 C 0.076,0.834 -0.597,1.776 -1.742,1.79 -2.684,1.8 -3.433,1.006 -3.479,0.086 -3.526,-0.858 -2.688,-1.761 -1.718,-1.747 -0.759,-1.732 -0.001,-0.973 0,0 m -1.732,3.316 c 1.809,0 3.315,-1.493 3.317,-3.292 0.003,-1.811 -1.48,-3.272 -3.324,-3.276 -1.808,-0.004 -3.289,1.464 -3.298,3.267 -0.009,1.799 1.493,3.301 3.305,3.301"
             style="fill:#060605;fill-opacity:1;fill-rule:nonzero;stroke:none"
             id="path124" />
        </g>
        <g
           id="g126"
           transform="translate(324.8858,508.3429)">
          <path
             d="m 0,0 c 0.062,-1.812 -1.424,-3.653 -3.601,-3.653 -2.176,0 -3.727,1.855 -3.71,3.62 0.02,2.1 1.823,3.725 3.638,3.679 C -1.57,3.593 0,2.081 0,0"
             style="fill:#fefeff;fill-opacity:1;fill-rule:nonzero;stroke:none"
             id="path128" />
        </g>
        <g
           id="g130"
           transform="translate(347.7481,507.1344)">
          <path
             d="m 0,0 c 0.957,-0.001 1.781,-0.808 1.785,-1.746 0.004,-0.984 -0.817,-1.796 -1.816,-1.795 -0.987,0 -1.805,0.795 -1.791,1.773 0.016,1.157 1,1.845 1.822,1.768"
             style="fill:#b5b4b5;fill-opacity:1;fill-rule:nonzero;stroke:none"
             id="path132" />
        </g>
        <g
           id="g134"
           transform="translate(298.4395,502.5817)">
          <path
             d="M 0,0 C -0.979,0 -1.808,0.805 -1.814,1.762 -1.82,2.716 -0.957,3.571 0.01,3.567 0.976,3.563 1.795,2.736 1.792,1.769 1.788,0.784 0.993,0 0,0"
             style="fill:#b5b4b5;fill-opacity:1;fill-rule:nonzero;stroke:none"
             id="path136" />
        </g>
        <g
           id="g138"
           transform="translate(329.2129,538.2311)">
          <path
             d="M 0,0 C 0.014,0.984 0.797,1.77 1.76,1.764 2.759,1.757 3.568,0.898 3.552,-0.137 3.536,-1.079 2.698,-1.833 1.681,-1.822 0.73,-1.812 -0.014,-1.005 0,0"
             style="fill:#b5b4b5;fill-opacity:1;fill-rule:nonzero;stroke:none"
             id="path140" />
        </g>
        <g
           id="g142"
           transform="translate(339.9512,530.3365)">
          <path
             d="M 0,0 C -0.951,0.003 -1.742,0.805 -1.757,1.78 -1.771,2.731 -0.959,3.535 0.017,3.537 0.979,3.54 1.778,2.735 1.773,1.768 1.769,0.819 0.944,-0.003 0,0"
             style="fill:#8fc55b;fill-opacity:1;fill-rule:nonzero;stroke:none"
             id="path144" />
        </g>
        <g
           id="g146"
           transform="translate(321.0557,526.4552)">
          <path
             d="m 0,0 c 0.004,-0.96 -0.796,-1.755 -1.767,-1.756 -0.972,-0.002 -1.771,0.785 -1.773,1.748 -0.002,0.948 0.825,1.782 1.765,1.78 C -0.831,1.77 -0.004,0.944 0,0"
             style="fill:#8fc55b;fill-opacity:1;fill-rule:nonzero;stroke:none"
             id="path148" />
        </g>
        <g
           id="g150"
           transform="translate(305.6577,535.0743)">
          <path
             d="m 0,0 c 0.005,-0.953 -0.801,-1.761 -1.767,-1.769 -0.965,-0.008 -1.767,0.787 -1.771,1.755 -0.003,0.968 0.798,1.775 1.759,1.772 C -0.812,1.754 -0.005,0.958 0,0"
             style="fill:#8fc55b;fill-opacity:1;fill-rule:nonzero;stroke:none"
             id="path152" />
        </g>
        <g
           id="g154"
           transform="translate(359.3633,510.6974)">
          <path
             d="M 0,0 C -0.001,0.988 0.766,1.774 1.732,1.777 2.673,1.78 3.547,0.905 3.527,-0.021 3.508,-0.957 2.664,-1.763 1.714,-1.753 0.751,-1.744 0.001,-0.976 0,0"
             style="fill:#8fc55b;fill-opacity:1;fill-rule:nonzero;stroke:none"
             id="path156" />
        </g>
        <g
           id="g158"
           transform="translate(360.2451,488.485)">
          <path
             d="m 0,0 c 0.023,-0.959 -0.765,-1.779 -1.735,-1.804 -0.908,-0.023 -1.76,0.792 -1.77,1.693 -0.012,0.993 0.731,1.825 1.645,1.846 C -0.817,1.758 -0.024,1.019 0,0"
             style="fill:#8fc55b;fill-opacity:1;fill-rule:nonzero;stroke:none"
             id="path160" />
        </g>
        <g
           id="g162"
           transform="translate(367.8985,531.0045)">
          <path
             d="m 0,0 c -0.003,-0.945 -0.798,-1.759 -1.73,-1.747 -1.124,0.015 -1.791,1.027 -1.754,1.807 0.044,0.923 0.799,1.7 1.741,1.706 C -0.781,1.772 0.004,0.977 0,0"
             style="fill:#e59a9a;fill-opacity:1;fill-rule:nonzero;stroke:none"
             id="path164" />
        </g>
        <g
           id="g166"
           transform="translate(291.502,522.7472)">
          <path
             d="M 0,0 C 0.969,0.002 1.771,-0.78 1.782,-1.74 1.793,-2.668 0.988,-3.465 0.035,-3.469 -0.948,-3.473 -1.749,-2.692 -1.742,-1.738 -1.736,-0.798 -0.938,-0.002 0,0"
             style="fill:#e59a9a;fill-opacity:1;fill-rule:nonzero;stroke:none"
             id="path168" />
        </g>
        <g
           id="g170"
           transform="translate(342.7451,498.4777)">
          <path
             d="m 0,0 c -0.005,-0.948 -0.799,-1.75 -1.731,-1.748 -0.949,0.003 -1.747,0.817 -1.744,1.779 0.002,0.948 0.788,1.733 1.74,1.74 C -0.777,1.777 0.004,0.98 0,0"
             style="fill:#e59a9a;fill-opacity:1;fill-rule:nonzero;stroke:none"
             id="path172" />
        </g>
        <g
           id="g174"
           transform="translate(301.355,488.4137)">
          <path
             d="M 0,0 C 0.971,-0.001 1.73,-0.756 1.734,-1.726 1.738,-2.704 0.957,-3.475 -0.03,-3.467 -0.972,-3.459 -1.774,-2.647 -1.761,-1.715 -1.747,-0.767 -0.959,0 0,0"
             style="fill:#e59a9a;fill-opacity:1;fill-rule:nonzero;stroke:none"
             id="path176" />
        </g>
        <g
           id="g178"
           transform="translate(339.6446,518.4454)">
          <path
             d="m 0,0 c -0.006,-0.979 -0.763,-1.761 -1.706,-1.764 -0.936,-0.002 -1.744,0.832 -1.735,1.791 0.008,0.969 0.788,1.742 1.742,1.73 C -0.714,1.744 0.007,0.999 0,0"
             style="fill:#e59a9a;fill-opacity:1;fill-rule:nonzero;stroke:none"
             id="path180" />
        </g>
        <g
           id="g182"
           transform="translate(310.8467,507.2887)">
          <path
             d="M 0,0 C 0.006,-0.017 0.012,-0.034 0.018,-0.05 0.007,-0.052 -0.003,-0.054 -0.014,-0.057 -0.006,-0.04 0.003,-0.023 0.011,-0.006 0.011,-0.005 0,0 0,0"
             style="fill:#fefefe;fill-opacity:1;fill-rule:nonzero;stroke:none"
             id="path184" />
        </g>
        <g
           id="g186"
           transform="translate(337.6797,488.0612)">
          <path
             d="m 0,0 c -0.001,-0.973 -0.759,-1.732 -1.718,-1.747 -0.97,-0.014 -1.808,0.889 -1.761,1.833 0.046,0.92 0.795,1.714 1.737,1.704 C -0.597,1.776 0.076,0.834 0,0"
             style="fill:#8fc55b;fill-opacity:1;fill-rule:nonzero;stroke:none"
             id="path188" />
        </g>
      </g>
    </g>
  </g>
</svg>
